<svg width="50" height="50" viewBox="0 0 50 50" fill="none" xmlns="http://www.w3.org/2000/svg">
<g id="bi:arrow-repeat">
<g id="Group">
<path id="Vector" d="M36.0438 21.875H48.3313C48.4797 21.8751 48.6251 21.9174 48.7503 21.9971C48.8756 22.0768 48.9755 22.1905 49.0385 22.3249C49.1015 22.4594 49.1248 22.609 49.1058 22.7562C49.0868 22.9034 49.0263 23.0422 48.9313 23.1562L42.7875 30.5313C42.7142 30.6192 42.6225 30.6899 42.5188 30.7384C42.4151 30.787 42.302 30.8121 42.1875 30.8121C42.073 30.8121 41.96 30.787 41.8563 30.7384C41.7526 30.6899 41.6608 30.6192 41.5875 30.5313L35.4438 23.1562C35.3488 23.0422 35.2882 22.9034 35.2692 22.7562C35.2502 22.609 35.2736 22.4594 35.3366 22.3249C35.3995 22.1905 35.4995 22.0768 35.6247 21.9971C35.75 21.9174 35.8953 21.8751 36.0438 21.875V21.875ZM1.66877 28.125H13.9563C14.1047 28.1249 14.2501 28.0826 14.3753 28.0029C14.5006 27.9232 14.6005 27.8095 14.6635 27.6751C14.7265 27.5406 14.7498 27.391 14.7308 27.2438C14.7118 27.0966 14.6513 26.9578 14.5563 26.8438L8.41253 19.4687C8.3392 19.3808 8.24746 19.3101 8.14377 19.2616C8.04009 19.213 7.92701 19.1879 7.81253 19.1879C7.69804 19.1879 7.58496 19.213 7.48128 19.2616C7.37759 19.3101 7.28585 19.3808 7.21253 19.4687L1.06878 26.8438C0.973768 26.9578 0.913225 27.0966 0.894236 27.2438C0.875247 27.391 0.898597 27.5406 0.961554 27.6751C1.02451 27.8095 1.12447 27.9232 1.24972 28.0029C1.37497 28.0826 1.52033 28.1249 1.66877 28.125V28.125Z" fill="#4EA00B"/>
<path id="Vector_2" fill-rule="evenodd" clip-rule="evenodd" d="M25 9.375C20.15 9.375 15.8125 11.5844 12.9469 15.0563C12.8189 15.2221 12.6589 15.3605 12.4764 15.4633C12.2939 15.5661 12.0925 15.6311 11.8844 15.6545C11.6762 15.6779 11.4655 15.6592 11.2647 15.5996C11.0639 15.5399 10.8771 15.4404 10.7155 15.3071C10.5539 15.1738 10.4208 15.0094 10.324 14.8236C10.2272 14.6378 10.1688 14.4345 10.1522 14.2257C10.1356 14.0168 10.1612 13.8068 10.2274 13.6081C10.2935 13.4093 10.399 13.2259 10.5375 13.0688C12.8256 10.2985 15.8612 8.24379 19.2833 7.14892C22.7055 6.05406 26.37 5.96516 29.8412 6.89278C33.3124 7.8204 36.4441 9.72551 38.8638 12.3815C41.2836 15.0375 42.8895 18.3327 43.4907 21.875H40.3125C39.591 18.3463 37.6731 15.175 34.8829 12.8973C32.0928 10.6197 28.6018 9.37544 25 9.375V9.375ZM9.68752 28.125C10.2791 31.0145 11.6761 33.6776 13.7171 35.8067C15.7582 37.9358 18.3599 39.444 21.2218 40.1571C24.0837 40.8702 27.0889 40.7591 29.8903 39.8366C32.6917 38.9141 35.175 37.2178 37.0532 34.9438C37.1811 34.7779 37.3411 34.6395 37.5236 34.5367C37.7062 34.4339 37.9075 34.3689 38.1157 34.3455C38.3238 34.3221 38.5346 34.3408 38.7354 34.4005C38.9362 34.4601 39.1229 34.5596 39.2845 34.6929C39.4461 34.8262 39.5793 34.9906 39.676 35.1764C39.7728 35.3622 39.8312 35.5655 39.8478 35.7743C39.8644 35.9832 39.8389 36.1932 39.7727 36.3919C39.7065 36.5907 39.601 36.7741 39.4625 36.9313C37.1744 39.7015 34.1388 41.7562 30.7167 42.8511C27.2946 43.9459 23.63 44.0348 20.1589 43.1072C16.6877 42.1796 13.556 40.2745 11.1362 37.6185C8.7165 34.9625 7.11055 31.6673 6.5094 28.125H9.68752Z" fill="#4EA00B"/>
<path id="Vector_3" d="M31.6179 20.8522H31.6105C31.5197 20.6934 31.3866 20.5629 31.2261 20.4751L24.7192 16.8002C24.5634 16.7127 24.3877 16.6668 24.209 16.6668C24.0303 16.6668 23.8546 16.7127 23.6988 16.8002L17.192 20.4603C17.0441 20.5441 16.9196 20.6636 16.8297 20.8078L16.8075 20.8374H16.8001C16.7148 20.9941 16.6691 21.1692 16.667 21.3476V28.6382C16.6668 28.8216 16.7152 29.0018 16.8075 29.1603C16.8997 29.3188 17.0324 29.4499 17.192 29.5403L23.6988 33.2004C23.8377 33.2769 23.9916 33.3223 24.1499 33.3335H24.2756C24.4312 33.3213 24.5825 33.2759 24.7192 33.2004L31.2261 29.5403C31.3856 29.4499 31.5183 29.3188 31.6106 29.1603C31.7028 29.0018 31.7513 28.8216 31.751 28.6382V21.3624C31.7536 21.1834 31.7076 21.0071 31.6179 20.8522V20.8522ZM24.1351 17.5692L24.209 17.5544L24.283 17.5692L30.4053 21.0148L27.8395 22.4715L21.5693 19.011L24.1351 17.5692ZM24.2756 24.4975L18.0201 21.0148L20.6598 19.5286L26.9375 22.9891L24.2756 24.4975ZM17.6282 28.7861C17.606 28.7716 17.5876 28.7519 17.5747 28.7287C17.5618 28.7055 17.5548 28.6795 17.5543 28.653V21.769L23.8319 25.2665L23.7728 32.2392L17.6282 28.7861ZM30.7898 28.7861L24.6601 32.2318L24.7192 25.2665L27.3885 23.7507V26.8192C27.3885 26.9369 27.4352 27.0498 27.5184 27.133C27.6016 27.2162 27.7145 27.2629 27.8321 27.2629C27.9498 27.2629 28.0626 27.2162 28.1458 27.133C28.229 27.0498 28.2758 26.9369 28.2758 26.8192V23.2479L30.8637 21.7764V28.653C30.8632 28.6795 30.8562 28.7055 30.8433 28.7287C30.8304 28.7519 30.812 28.7716 30.7898 28.7861V28.7861Z" fill="#4EA00B"/>
</g>
</g>
</svg>
